<svg xmlns="http://www.w3.org/2000/svg" xmlns:xlink="http://www.w3.org/1999/xlink" viewBox="0 0 374.9 696.602">
  <defs>
    <style>
      .cls-1 {
        fill: url(#linear-gradient);
      }
    </style>
    <linearGradient id="linear-gradient" x1="0.5" y1="1.008" x2="0.5" y2="-0.024" gradientUnits="objectBoundingBox">
      <stop offset="0.376" stop-color="#55c1ae"/>
      <stop offset="0.419" stop-color="#57c2b1"/>
      <stop offset="0.636" stop-color="#5fc3be"/>
      <stop offset="0.845" stop-color="#62c4c2"/>
    </linearGradient>
  </defs>
  <path id="Path_233" data-name="Path 233" class="cls-1" d="M325.4,40.774c-18.1,6.872-34.1,17.524-52.9,22.22-18.5,4.7-37.6,5.841-56.5,4.925-37.9-1.833-75.2-11.683-111.6-23.251A630.88,630.88,0,0,1,28.1,14.431C25.9,13.4,0,2.978,0,0V656.743c30.1-16.951,63.4-25.312,96.8-27.717,54.8-4.009,115.8,4.81,167.3,27.717A784.921,784.921,0,0,0,374.9,696.6V23.823C358.2,28.863,341.8,34.59,325.4,40.774Z"/>
</svg>
