<svg xmlns="http://www.w3.org/2000/svg" viewBox="0 0 525.621 225.164">
  <defs>
    <style>
      .cls-1, .cls-10, .cls-11, .cls-12, .cls-4, .cls-5, .cls-7, .cls-8 {
        fill: none;
      }

      .cls-1 {
        stroke: #fff;
      }

      .cls-1, .cls-10, .cls-11, .cls-12, .cls-13, .cls-4, .cls-5, .cls-7, .cls-8 {
        stroke-miterlimit: 10;
      }

      .cls-13, .cls-2, .cls-3 {
        fill: #fff;
      }

      .cls-3 {
        font-size: 13px;
        font-family: Arial-BoldMT, Arial;
        font-weight: 700;
      }

      .cls-4, .cls-5 {
        stroke: #f59718;
      }

      .cls-10, .cls-11, .cls-4 {
        stroke-linecap: round;
      }

      .cls-10, .cls-11, .cls-12, .cls-4 {
        stroke-linejoin: round;
      }

      .cls-10, .cls-11, .cls-12, .cls-13, .cls-4, .cls-5, .cls-7, .cls-8 {
        stroke-width: 2px;
      }

      .cls-6 {
        fill: #f59718;
      }

      .cls-11, .cls-12, .cls-7 {
        stroke: #71d1dd;
      }

      .cls-10, .cls-13, .cls-8 {
        stroke: #5b5f63;
      }

      .cls-9 {
        fill: #5b5f63;
      }

      .cls-14 {
        fill: #71d1dd;
      }
    </style>
  </defs>
  <g id="Group_211" data-name="Group 211" transform="translate(-810.489 -3278.663)">
    <g id="white-circle" transform="translate(810.489 3278.663)">
      <g id="Group_6" data-name="Group 6">
        <line id="Line_1" data-name="Line 1" class="cls-1" x2="525.621" transform="translate(0 108.86)"/>
        <line id="Line_2" data-name="Line 2" class="cls-1" y2="214.87" transform="translate(128.442)"/>
        <line id="Line_3" data-name="Line 3" class="cls-1" y2="214.87" transform="translate(263.111)"/>
        <line id="Line_4" data-name="Line 4" class="cls-1" y2="214.87" transform="translate(397.779)"/>
        <g id="Group_3" data-name="Group 3" transform="translate(26.934 9.003)">
          <g id="Group_2" data-name="Group 2">
            <circle id="Ellipse_1" data-name="Ellipse 1" class="cls-2" cx="35.336" cy="35.336" r="35.336"/>
            <circle id="Ellipse_2" data-name="Ellipse 2" class="cls-2" cx="35.336" cy="35.336" r="35.336" transform="translate(132.943)"/>
            <circle id="Ellipse_3" data-name="Ellipse 3" class="cls-2" cx="35.336" cy="35.336" r="35.336" transform="translate(265.886)"/>
            <circle id="Ellipse_4" data-name="Ellipse 4" class="cls-2" cx="35.336" cy="35.336" r="35.336" transform="translate(398.83)"/>
          </g>
          <text id="Contary" class="cls-3" transform="translate(9.908 84.697)"><tspan x="0" y="0">Contary</tspan></text>
          <text id="Cicero" class="cls-3" transform="translate(147.345 84.697)"><tspan x="0" y="0">Cicero</tspan></text>
          <text id="Chunk" class="cls-3" transform="translate(280.308 84.697)"><tspan x="0" y="0">Chunk</tspan></text>
          <text id="Ipsum" class="cls-3" transform="translate(414.379 84.697)"><tspan x="0" y="0">Ipsum</tspan></text>
        </g>
        <g id="Group_5" data-name="Group 5" transform="translate(26.934 137.445)">
          <g id="Group_4" data-name="Group 4">
            <circle id="Ellipse_5" data-name="Ellipse 5" class="cls-2" cx="35.336" cy="35.336" r="35.336"/>
            <circle id="Ellipse_6" data-name="Ellipse 6" class="cls-2" cx="35.336" cy="35.336" r="35.336" transform="translate(132.943)"/>
            <circle id="Ellipse_7" data-name="Ellipse 7" class="cls-2" cx="35.336" cy="35.336" r="35.336" transform="translate(265.886)"/>
            <circle id="Ellipse_8" data-name="Ellipse 8" class="cls-2" cx="35.336" cy="35.336" r="35.336" transform="translate(398.83)"/>
          </g>
          <text id="Contary-2" data-name="Contary" class="cls-3" transform="translate(9.908 84.72)"><tspan x="0" y="0">Contary</tspan></text>
          <text id="Cicero-2" data-name="Cicero" class="cls-3" transform="translate(147.345 84.72)"><tspan x="0" y="0">Cicero</tspan></text>
          <text id="Chunk-2" data-name="Chunk" class="cls-3" transform="translate(280.308 84.72)"><tspan x="0" y="0">Chunk</tspan></text>
          <text id="Ipsum-2" data-name="Ipsum" class="cls-3" transform="translate(414.379 84.72)"><tspan x="0" y="0">Ipsum</tspan></text>
        </g>
      </g>
    </g>
    <g id="circle-icon" transform="translate(854.311 3298.319)">
      <g id="Group_7" data-name="Group 7" transform="translate(4.474 132.643)">
        <path id="Path_3" data-name="Path 3" class="cls-4" d="M231.37,2861.66h0s-.075-5.627-.075-6.152c0-1.8-.225-3.751.45-5.477,1.5-3.6,6.452-6.077,10.053-4.126a9.158,9.158,0,0,1,4.2,4.051c.675,1.726.3,3.676.375,5.477v6.152h2.776a.952.952,0,0,0,.45-.075.751.751,0,0,0,.3-.375,17.724,17.724,0,0,0,3.151-10.579,13.332,13.332,0,0,0-8.628-11.854s4.5-4.5,3.6-7.353l-18.156-.15a9.394,9.394,0,0,0,3.6,7.578s-6.677,1.951-8.478,11.329c0,0-.525,8.478,3.751,11.479C229.045,2861.96,230.77,2861.66,231.37,2861.66Z" transform="translate(-224.973 -2821.072)"/>
        <path id="Path_4" data-name="Path 4" class="cls-5" d="M239.2,2869.061h6.452v-6.827a6.829,6.829,0,0,0-6.452,0Z" transform="translate(-228.526 -2828.623)"/>
        <path id="Path_5" data-name="Path 5" class="cls-5" d="M243.041,2854.1s-1.275,1.951-1.651,2.7c0,0-.375,2.176,1.651,2.176,0,0,2.176-.15,1.8-2.176A11.8,11.8,0,0,1,243.041,2854.1Z" transform="translate(-229.066 -2826.791)"/>
        <path id="Path_6" data-name="Path 6" class="cls-6" d="M242.95,2817.7a2.259,2.259,0,0,1,1.275,2.026,5.009,5.009,0,0,1-1.05,2.7,3.186,3.186,0,0,0-.375,2.026,1.569,1.569,0,0,0,.525.975,2.811,2.811,0,0,1-1.275-1.2,1.484,1.484,0,0,1-.15-.825c.075-.6.675-1.05.9-1.576a5.685,5.685,0,0,0,.375-2.251v-1.2C243.25,2818.075,243.175,2817.775,242.95,2817.7Z" transform="translate(-229.2 -2817.7)"/>
        <path id="Path_7" data-name="Path 7" class="cls-6" d="M247.05,2819.3a2.259,2.259,0,0,1,1.275,2.026,5.009,5.009,0,0,1-1.05,2.7,3.186,3.186,0,0,0-.375,2.026,1.569,1.569,0,0,0,.525.975,2.811,2.811,0,0,1-1.275-1.2A1.484,1.484,0,0,1,246,2825c.075-.6.675-1.05.9-1.576a5.686,5.686,0,0,0,.375-2.251v-1.2A.6.6,0,0,0,247.05,2819.3Z" transform="translate(-230.224 -2818.1)"/>
        <path id="Path_8" data-name="Path 8" class="cls-6" d="M238.45,2819.8a2.259,2.259,0,0,1,1.275,2.026,5.01,5.01,0,0,1-1.05,2.7,3.186,3.186,0,0,0-.375,2.026,1.569,1.569,0,0,0,.525.975,2.812,2.812,0,0,1-1.275-1.2,1.484,1.484,0,0,1-.15-.825c.075-.6.675-1.05.9-1.575a5.686,5.686,0,0,0,.375-2.251v-1.2C238.675,2820.175,238.675,2819.875,238.45,2819.8Z" transform="translate(-228.077 -2818.224)"/>
      </g>
      <g id="Group_9" data-name="Group 9" transform="translate(0 2.778)">
        <path id="Path_9" data-name="Path 9" class="cls-7" d="M232.657,2659.7c0,.15.075.375.075.525v2.926c0,.3.525.825.6,1.125a7.41,7.41,0,0,1,.9,2.1,9.758,9.758,0,0,1,0,3.9c-.45,3.451-1.726,6.6-.225,10.053,1.125,2.551,2.176,5.627,1.726,8.478,0,0-.225,4.652-3.676,4.652,0,0-3.826,1.35-5.552-4.051,0,0-.975-6.377-3.076-9.078,0,0-3.826-8.253-4.051-11.178,0,0-1.35-5.027,1.125-5.4,0,0-.375-1.125,1.576-1.575,0,0,0-2.326,2.1-2.1,0,0-.225-1.951,2.476-1.575a5.462,5.462,0,0,0,.6-.675,3.885,3.885,0,0,1,1.651-1.05C230.781,2656.244,232.357,2658.044,232.657,2659.7Z" transform="translate(-219.01 -2647.618)"/>
        <g id="Group_8" data-name="Group 8" transform="translate(19.392)">
          <path id="Path_10" data-name="Path 10" class="cls-7" d="M248.04,2647.6c0,.15-.075.375-.075.525v2.926c0,.3-.525.825-.6,1.125a7.41,7.41,0,0,0-.9,2.1,9.758,9.758,0,0,0,0,3.9c.45,3.451,1.726,6.6.225,10.053-1.125,2.551-2.176,5.627-1.726,8.478,0,0,.225,4.651,3.676,4.651,0,0,3.826,1.351,5.552-4.051,0,0,.975-6.377,3.076-9.078,0,0,3.826-8.253,4.051-11.178,0,0,1.35-5.027-1.125-5.4,0,0,.375-1.125-1.576-1.575,0,0,0-2.326-2.1-2.1,0,0,.225-1.951-2.476-1.576a5.457,5.457,0,0,1-.6-.675,3.885,3.885,0,0,0-1.651-1.05C249.916,2644.226,248.341,2645.951,248.04,2647.6Z" transform="translate(-244.858 -2644.603)"/>
          <circle id="Ellipse_9" data-name="Ellipse 9" class="cls-7" cx="2.026" cy="2.026" r="2.026" transform="translate(9.785 16.728)"/>
          <circle id="Ellipse_10" data-name="Ellipse 10" class="cls-7" cx="2.476" cy="2.476" r="2.476" transform="translate(1.157 23.93)"/>
        </g>
        <circle id="Ellipse_11" data-name="Ellipse 11" class="cls-7" cx="1.576" cy="1.576" r="1.576" transform="translate(2.093 23.93)"/>
        <circle id="Ellipse_12" data-name="Ellipse 12" class="cls-7" cx="2.476" cy="2.476" r="2.476" transform="translate(11.546 34.284)"/>
        <circle id="Ellipse_13" data-name="Ellipse 13" class="cls-7" cx="1.576" cy="1.576" r="1.576" transform="translate(11.096 26.631)"/>
      </g>
      <g id="Group_13" data-name="Group 13" transform="translate(399.827 133.394)">
        <path id="Path_11" data-name="Path 11" class="cls-8" d="M752.06,2839.182l8.4,13.354a13.17,13.17,0,0,0,9.153,5.027s10.278.225,12.079-10.428v-19.806a1.978,1.978,0,0,0-2.1-1.875s-2.1.075-2.176,1.875v8.4s-.225.6-.9,0v-12.154s-.525-1.951-2.176-1.8c0,0-1.951,0-2.326,1.425v11.629a.566.566,0,0,1-.9,0v-14.179s0-1.8-2.476-1.951a2.056,2.056,0,0,0-1.951,1.65v14.33s-.3.825-.6,0v-12.3s-.825-2.1-2.326-1.8a2.425,2.425,0,0,0-2.476,1.8v19.356s0,.75-.9.3l-4.351-5.7a2.086,2.086,0,0,0-3,.075A2.63,2.63,0,0,0,752.06,2839.182Z" transform="translate(-751.939 -2818.7)"/>
        <g id="Group_10" data-name="Group 10" transform="translate(25.329 21.832)">
          <circle id="Ellipse_14" data-name="Ellipse 14" class="cls-4" cx="2.551" cy="2.551" r="2.551" transform="translate(9.528)"/>
          <line id="Line_5" data-name="Line 5" class="cls-4" x1="11.779" transform="translate(0 2.551)"/>
        </g>
        <g id="Group_11" data-name="Group 11" transform="translate(0.046 10.053)">
          <circle id="Ellipse_15" data-name="Ellipse 15" class="cls-4" cx="2.551" cy="2.551" r="2.551"/>
          <line id="Line_6" data-name="Line 6" class="cls-4" x2="7.878" transform="translate(2.851 2.551)"/>
        </g>
        <g id="Group_12" data-name="Group 12" transform="translate(19.177 27.984)">
          <circle id="Ellipse_16" data-name="Ellipse 16" class="cls-4" cx="2.551" cy="2.551" r="2.551" transform="translate(9.528)"/>
          <line id="Line_7" data-name="Line 7" class="cls-4" x1="11.779" transform="translate(0 2.551)"/>
        </g>
      </g>
      <g id="Group_14" data-name="Group 14" transform="translate(260.776 21.457)">
        <path id="Path_12" data-name="Path 12" class="cls-9" d="M588.432,2671h1.275c11.854.225,21.307,4.051,21.232,8.4-.075,4.276-9.078,7.5-20.332,7.5h-1.275c-11.854-.225-21.307-4.051-21.232-8.4.075-4.2,9.078-7.5,20.332-7.5m0-1.5v0h0c-10.728,0-21.682,3.076-21.832,9-.075,2.776,2.476,5.327,7.127,7.2a47.546,47.546,0,0,0,15.605,2.776h1.275c10.728,0,21.682-3.076,21.832-9,.075-2.776-2.476-5.327-7.127-7.2a47.546,47.546,0,0,0-15.605-2.776Z" transform="translate(-566.598 -2669.5)"/>
      </g>
      <g id="Group_15" data-name="Group 15" transform="translate(269.361 12.229)">
        <path id="Path_13" data-name="Path 13" class="cls-9" d="M588.439,2658.7a43.11,43.11,0,0,1,5.177.375c7.352,1.125,12.9,4.276,12.529,6.977-.3,2.026-3.976,3.3-8.853,3.3a43.11,43.11,0,0,1-5.177-.375c-7.352-1.125-12.9-4.276-12.529-6.977.3-2.1,3.9-3.3,8.853-3.3m0-1.5h0c-6.077,0-9.9,1.726-10.353,4.577-.225,1.425.3,3.526,4.126,5.627a29.979,29.979,0,0,0,9.678,3.076,34.213,34.213,0,0,0,5.4.45c6.077,0,9.9-1.726,10.353-4.577.225-1.425-.3-3.526-4.126-5.627a29.979,29.979,0,0,0-9.678-3.076,34.214,34.214,0,0,0-5.4-.45Z" transform="translate(-578.041 -2657.2)"/>
      </g>
      <g id="Group_16" data-name="Group 16" transform="translate(274.582 6.902)">
        <path id="Path_14" data-name="Path 14" class="cls-9" d="M594.528,2651.6c4.427,0,8.028,1.351,8.028,3s-3.6,3-8.028,3-8.028-1.351-8.028-3c.075-1.651,3.6-3,8.028-3m0-1.5c-4.576,0-9.528,1.425-9.528,4.5s4.952,4.5,9.528,4.5,9.528-1.425,9.528-4.5-4.877-4.5-9.528-4.5Z" transform="translate(-585 -2650.1)"/>
      </g>
      <path id="Path_15" data-name="Path 15" class="cls-4" d="M609.739,2652.181a7.95,7.95,0,0,0-.375,2.626c-.15,1.5-.3,2.926.675,4.2a12.613,12.613,0,0,0,3.6,3s.375-1.651.375-1.8a10.1,10.1,0,0,0,.075-3.676c-.15-.975-1.2-1.951-1.8-2.626-.525-.6-1.5-1.8-2.4-1.726C609.814,2652.106,609.739,2652.106,609.739,2652.181Z" transform="translate(-316.476 -2643.704)"/>
      <path id="Path_16" data-name="Path 16" class="cls-4" d="M616.9,2661.9s-.225-4.952,1.876-6.752c0,0,4.351-3.076,7.427-2.476,0,0,0,4.952-2.251,6.752C623.875,2659.426,622.449,2661.3,616.9,2661.9Z" transform="translate(-318.383 -2643.821)"/>
      <path id="Path_17" data-name="Path 17" class="cls-4" d="M616.9,2666.245s3.676-1.05,5.927,0a10.572,10.572,0,0,1,3.676,5.1,21.852,21.852,0,0,1-5.327,0C621.251,2671.346,617.125,2669.7,616.9,2666.245Z" transform="translate(-318.385 -2647.113)"/>
      <g id="Group_21" data-name="Group 21" transform="translate(128.434 8.403)">
        <g id="Group_17" data-name="Group 17" transform="translate(2.232 13.054)">
          <path id="Path_18" data-name="Path 18" class="cls-9" d="M414.426,2671c5.777,0,12.379,2.251,19.131,9.078a32.4,32.4,0,0,1-19.581,6.977c-5.777,0-12.379-1.726-19.356-6.977,0,0,8.253-9.078,19.806-9.078m0-1.5h0c-12.079,0-20.557,9.153-20.857,9.528a1.306,1.306,0,0,0-.375,1.125,1.379,1.379,0,0,0,.6,1.05c6.377,4.8,13.2,7.277,20.257,7.277a33.872,33.872,0,0,0,20.557-7.353,1.575,1.575,0,0,0,.525-1.05,1.526,1.526,0,0,0-.45-1.125c-6.377-6.227-13.2-9.453-20.257-9.453Z" transform="translate(-393.175 -2669.5)"/>
        </g>
        <path id="Path_19" data-name="Path 19" class="cls-10" d="M390.2,2676.926s20.782-24.158,45.99,0" transform="translate(-390.2 -2655.619)"/>
        <g id="Group_18" data-name="Group 18" transform="translate(31.81 1.425)">
          <circle id="Ellipse_17" data-name="Ellipse 17" class="cls-4" cx="2.626" cy="2.626" r="2.626" transform="translate(0.375)"/>
          <line id="Line_8" data-name="Line 8" class="cls-4" x1="2.926" y2="11.854" transform="translate(0 2.926)"/>
        </g>
        <g id="Group_19" data-name="Group 19" transform="translate(20.632)">
          <circle id="Ellipse_18" data-name="Ellipse 18" class="cls-4" cx="2.626" cy="2.626" r="2.626"/>
          <line id="Line_9" data-name="Line 9" class="cls-4" x2="0.6" y2="12.079" transform="translate(2.701 2.926)"/>
        </g>
        <g id="Group_20" data-name="Group 20" transform="translate(8.403 1.801)">
          <circle id="Ellipse_19" data-name="Ellipse 19" class="cls-4" cx="2.626" cy="2.626" r="2.626"/>
          <line id="Line_10" data-name="Line 10" class="cls-4" x2="4.126" y2="11.404" transform="translate(2.701 2.926)"/>
        </g>
      </g>
      <path id="Path_20" data-name="Path 20" class="cls-11" d="M572.267,2851h7.8v3.826c0,3.676-7.427,3.976-7.8.225A20.152,20.152,0,0,1,572.267,2851Z" transform="translate(-307.213 -2693.374)"/>
      <path id="Path_21" data-name="Path 21" class="cls-11" d="M565.667,2847.4h7.8v3.826c0,3.676-7.427,3.976-7.8.225A20.148,20.148,0,0,1,565.667,2847.4Z" transform="translate(-305.565 -2692.475)"/>
      <g id="Group_22" data-name="Group 22" transform="translate(268.805 140.567)">
        <path id="Path_22" data-name="Path 22" class="cls-12" d="M591.7,2834.143s10.053,2.7,18.381,0c0,0-.675-2.251-7.427-3.6v-1.125c0-1.5-3.376-1.576-3.376,0v.9S593.426,2830.766,591.7,2834.143Z" transform="translate(-580.896 -2828.262)"/>
        <path id="Path_23" data-name="Path 23" class="cls-11" d="M586.753,2836.276c.225-.075,1.05.45,1.35.525a16.11,16.11,0,0,0,3.751.9,34.074,34.074,0,0,0,15.53-1.2,8.305,8.305,0,0,1,8.478,1.8,7.578,7.578,0,0,1-.525,10.2c-1.576,1.425-3.9,1.726-5.927,1.726a6.578,6.578,0,0,0-.45.75,7.008,7.008,0,0,1-2.026,1.576,14.123,14.123,0,0,1-7.577,1.951h-5.027a12.613,12.613,0,0,1-7.277-2.4,7.758,7.758,0,0,1-2.7-3.3,11.575,11.575,0,0,1-.525-4.8v-1.8a5.623,5.623,0,0,1-3.376-3.151c-.975-1.951-.6-4.877-3.151-5.852h2.926s.9,1.951,1.05,2.1C582.552,2836.951,584.878,2836.726,586.753,2836.276Z" transform="translate(-577.3 -2829.496)"/>
        <path id="Path_24" data-name="Path 24" class="cls-11" d="M619.7,2839.8h2.326c5.7,0,4.877,11.1-1.05,10.428C620.975,2850.228,622.926,2844.451,619.7,2839.8Z" transform="translate(-587.89 -2831.144)"/>
      </g>
      <g id="Group_23" data-name="Group 23" transform="translate(125.808 136.319)">
        <path id="Path_25" data-name="Path 25" class="cls-13" d="M419.683,2822.6s-13.2,13.955.375,27.459C419.983,2850.059,433.187,2836.179,419.683,2822.6Z" transform="translate(-393.499 -2822.6)"/>
        <path id="Path_26" data-name="Path 26" class="cls-13" d="M441.606,2833s-19.206.525-19.206,19.656C422.475,2852.731,441.606,2852.206,441.606,2833Z" transform="translate(-395.616 -2825.198)"/>
        <path id="Path_27" data-name="Path 27" class="cls-13" d="M448.608,2848.478s-16.88-9.078-26.409,7.578C422.125,2856.055,439.005,2865.133,448.608,2848.478Z" transform="translate(-395.566 -2828.447)"/>
        <path id="Path_28" data-name="Path 28" class="cls-13" d="M396,2833s19.206.525,19.206,19.656C415.206,2852.731,396,2852.206,396,2833Z" transform="translate(-389.023 -2825.198)"/>
        <path id="Path_29" data-name="Path 29" class="cls-13" d="M386.7,2848.478s16.88-9.078,26.409,7.578C413.109,2856.055,396.228,2865.133,386.7,2848.478Z" transform="translate(-386.7 -2828.447)"/>
      </g>
      <path id="Path_30" data-name="Path 30" class="cls-14" d="M763.568,2663.622l20.332,5.1s4.576,1.275,2.1,4.876c0,0-3.451,3.751-7.352,4.426a10.053,10.053,0,0,1-5.4,0l-20.332-6.227s-2.926-1.125-1.8-3.076c0,0,5.4-4.727,7.5-5.1C758.692,2663.622,759.817,2663.1,763.568,2663.622Z" transform="translate(-351.842 -2646.517)"/>
      <path id="Path_31" data-name="Path 31" class="cls-2" d="M765.378,2664.532l17.031,4.276s3.826,1.125,1.8,4.126c0,0-2.851,3.151-6.152,3.676a8.481,8.481,0,0,1-4.5,0l-17.031-5.252s-2.476-.975-1.5-2.626c0,0,4.5-3.976,6.3-4.276A11.261,11.261,0,0,1,765.378,2664.532Z" transform="translate(-352.826 -2646.752)"/>
      <path id="Path_32" data-name="Path 32" class="cls-14" d="M784.91,2680.151a11.807,11.807,0,0,1-6.077,2.926,14.666,14.666,0,0,1-7.052-.975l-18.681-5.7s1.8,1.275,1.651,2.926a8.186,8.186,0,0,0,.675,2.776,17.524,17.524,0,0,0,.975,1.65s.525.15.15.525a2.985,2.985,0,0,1-1.651.675s-1.275,1.5.15,2.326c0,0,1.125.675,3.076-.675,0,0,.075.075,1.2-1.426l12.9,3.976s1.2.3,1.876.45c0,0,.525,2.626,1.951,3.3a1.726,1.726,0,0,0,1.8-.675,2.2,2.2,0,0,0-.3-1.8s-.975-.675-.675-.975a9.959,9.959,0,0,0,3.3-1.275s1.125-.976,1.275-1.125c0,0,.15-.15.3.15,0,0,.525,1.5,1.5,1.651,0,0,2.326.15,1.8-1.651a7.89,7.89,0,0,1-1.275-2.626C783.86,2684.428,784.01,2680.376,784.91,2680.151Z" transform="translate(-352.402 -2649.766)"/>
      <g id="Group_24" data-name="Group 24" transform="translate(414.257)">
        <path id="Path_33" data-name="Path 33" class="cls-14" d="M780.144,2640.9a3.469,3.469,0,0,1,2.026,3.226c.075,1.8-.825,2.926-1.725,4.352a4.753,4.753,0,0,0-.6,3.226,2.915,2.915,0,0,0,.825,1.575,3.806,3.806,0,0,1-1.951-1.951,2.854,2.854,0,0,1-.225-1.35c.15-.975,1.05-1.651,1.5-2.551a9.824,9.824,0,0,0,.6-3.6,7.85,7.85,0,0,0,0-1.875C780.594,2641.5,780.519,2641.05,780.144,2640.9Z" transform="translate(-772.997 -2640.9)"/>
        <path id="Path_34" data-name="Path 34" class="cls-14" d="M786.644,2643.6a3.469,3.469,0,0,1,2.026,3.226c.075,1.8-.825,2.926-1.725,4.352a4.753,4.753,0,0,0-.6,3.226,2.917,2.917,0,0,0,.825,1.576,3.807,3.807,0,0,1-1.951-1.951,2.854,2.854,0,0,1-.225-1.35c.15-.976,1.05-1.651,1.5-2.551a9.824,9.824,0,0,0,.6-3.6,7.852,7.852,0,0,0,0-1.876C787.094,2644.2,787.019,2643.75,786.644,2643.6Z" transform="translate(-774.62 -2641.574)"/>
        <path id="Path_35" data-name="Path 35" class="cls-14" d="M772.844,2644.4a3.469,3.469,0,0,1,2.026,3.226c.075,1.8-.825,2.926-1.726,4.352a4.753,4.753,0,0,0-.6,3.226,2.915,2.915,0,0,0,.825,1.575,3.806,3.806,0,0,1-1.951-1.951,2.854,2.854,0,0,1-.225-1.35c.15-.975,1.05-1.651,1.5-2.551a9.821,9.821,0,0,0,.6-3.6,7.843,7.843,0,0,0,0-1.875C773.294,2645,773.219,2644.475,772.844,2644.4Z" transform="translate(-771.173 -2641.774)"/>
      </g>
    </g>
  </g>
</svg>
