<svg xmlns="http://www.w3.org/2000/svg" xmlns:xlink="http://www.w3.org/1999/xlink" viewBox="0 0 1440.4 627.655">
  <defs>
    <style>
      .cls-1 {
        fill: url(#linear-gradient);
      }
    </style>
    <linearGradient id="linear-gradient" x1="0.5" y1="0.025" x2="0.5" y2="1.025" gradientUnits="objectBoundingBox">
      <stop offset="0.376" stop-color="#55c1ae"/>
      <stop offset="0.419" stop-color="#57c2b1"/>
      <stop offset="0.636" stop-color="#5fc3be"/>
      <stop offset="0.845" stop-color="#62c4c2"/>
    </linearGradient>
  </defs>
  <path id="Path_237" data-name="Path 237" class="cls-1" d="M.6,2436c0,2.6,36.453,11.7,39.55,12.6,35.046,10.3,70.936,19.1,107.39,26.4,51.232,10.1,103.73,18.7,157.073,20.3,26.6.8,53.484-.2,79.522-4.3,26.46-4.1,48.98-13.4,74.455-19.4,29.275-6.9,58.832-13.1,88.811-18.3,59.536-10.3,120.761-16.6,182.126-15.6,53.062.8,106.827,7.1,158.9,14,112.6,14.9,211.964,60.1,325.125,72.6,75.862,8.4,168.614,8.7,227.446-32.2v517.4s-203.519-56.8-389.164,0c-41.8,11-84.589,20.4-127.516,29-92.471,18.5-176.778,31.3-273.048,22.1a1620.037,1620.037,0,0,1-278.96-51.2c-72.484-20-158.34-27.7-235.469-24.2-47.009,2.1-93.878,9.4-136.243,24.2C.6,3009.5.6,2436,.6,2436Z" transform="translate(-0.6 -2436)"/>
</svg>
