<svg xmlns="http://www.w3.org/2000/svg" xmlns:xlink="http://www.w3.org/1999/xlink" viewBox="0 0 1023.4 691.156">
  <defs>
    <style>
      .cls-1 {
        fill: url(#linear-gradient);
      }
    </style>
    <linearGradient id="linear-gradient" x1="0.5" y1="0.025" x2="0.5" y2="1.025" gradientUnits="objectBoundingBox">
      <stop offset="0.376" stop-color="#55c1ae"/>
      <stop offset="0.419" stop-color="#57c2b1"/>
      <stop offset="0.636" stop-color="#5fc3be"/>
      <stop offset="0.845" stop-color="#62c4c2"/>
    </linearGradient>
  </defs>
  <path id="Path_232" data-name="Path 232" class="cls-1" d="M.6,2436c0,2.863,25.9,12.884,28.1,13.875a646.04,646.04,0,0,0,76.3,29.071c36.4,11.122,73.7,20.592,111.6,22.354,18.9.881,38-.22,56.5-4.735,18.8-4.515,34.8-14.756,52.9-21.363,20.8-7.6,41.8-14.425,63.1-20.151,42.3-11.342,85.8-18.28,129.4-17.178,37.7.881,75.9,7.819,112.9,15.416,80,16.407,150.6,66.181,231,79.946,53.9,9.25,119.8,9.58,161.6-35.458v569.746s-144.6-62.547-276.5,0c-29.7,12.113-60.1,22.464-90.6,31.934-65.7,20.372-125.6,34.467-194,24.336a796.011,796.011,0,0,1-198.2-56.38c-51.5-22.023-112.5-30.5-167.3-26.648-33.4,2.312-66.7,10.351-96.8,26.648C.6,3067.522.6,2436,.6,2436Z" transform="translate(-0.6 -2436)"/>
</svg>
