<svg xmlns="http://www.w3.org/2000/svg" xmlns:xlink="http://www.w3.org/1999/xlink" viewBox="0 0 1800 996.875">
  <defs>
    <style>
      .cls-1 {
        fill: url(#linear-gradient);
      }
    </style>
    <linearGradient id="linear-gradient" x1="0.5" y1="0.025" x2="0.5" y2="1.025" gradientUnits="objectBoundingBox">
      <stop offset="0.376" stop-color="#55c1ae"/>
      <stop offset="0.419" stop-color="#57c2b1"/>
      <stop offset="0.636" stop-color="#5fc3be"/>
      <stop offset="0.845" stop-color="#62c4c2"/>
    </linearGradient>
  </defs>
  <path id="Path_236" data-name="Path 236" class="cls-1" d="M.6,2436c0,4.13,45.554,18.583,49.423,20.012a1299.992,1299.992,0,0,0,134.2,41.93c64.022,16.042,129.627,29.7,196.287,32.241,33.242,1.271,66.836-.317,99.375-6.829,33.066-6.512,61.208-21.282,93.043-30.812,36.584-10.959,73.52-20.806,110.983-29.065,74.4-16.359,150.909-26.365,227.594-24.776,66.308,1.271,133.5,11.276,198.573,22.235,140.708,23.665,264.882,95.454,406.293,115.308,94.8,13.341,210.709,13.817,284.229-51.142v821.762s-254.329-90.213-486.32,0c-52.238,17.471-105.707,32.4-159.351,46.06-115.556,29.383-220.911,49.712-341.216,35.1a1642.9,1642.9,0,0,1-348.6-81.318c-90.58-31.766-197.87-44-294.254-38.436C112.111,3311.6,53.541,3323.2.6,3346.7.6,3346.863.6,2436,.6,2436Z" transform="translate(-0.6 -2436)"/>
</svg>
